<svg xmlns="http://www.w3.org/2000/svg" xmlns:xlink="http://www.w3.org/1999/xlink" width="1080" zoomAndPan="magnify" viewBox="0 0 810 809.999993" height="1080" preserveAspectRatio="xMidYMid meet" version="1.0"><defs><clipPath id="24cc0049d2"><path d="M 0 32.398438 L 810 32.398438 L 810 777.898438 L 0 777.898438 Z M 0 32.398438 " clip-rule="nonzero"/></clipPath></defs><g clip-path="url(#24cc0049d2)"><path fill="#000000" d="M 110.710938 142.226562 L 1.914062 142.226562 C 0.984375 142.226562 0.226562 141.464844 0.226562 140.535156 L 0.226562 91.683594 C 0.226562 90.753906 0.984375 89.996094 1.914062 89.996094 L 152.140625 89.996094 C 152.9375 89.996094 153.605469 90.527344 153.785156 91.300781 L 203.859375 306.140625 C 204.109375 307.203125 203.308594 308.210938 202.21875 308.210938 L 152.074219 308.210938 C 151.28125 308.210938 150.613281 307.679688 150.433594 306.90625 L 112.351562 143.53125 C 112.171875 142.753906 111.5 142.226562 110.710938 142.226562 Z M 517.011719 204.917969 L 541.898438 150.808594 C 547.589844 138.453125 559.582031 130.765625 573.140625 130.765625 L 582.289062 130.765625 C 583.660156 130.765625 584.460938 129.226562 583.667969 128.105469 L 516.855469 33.210938 C 516.179688 32.253906 514.773438 32.253906 514.097656 33.210938 L 447.300781 128.082031 C 446.507812 129.207031 447.320312 130.757812 448.699219 130.742188 C 458.6875 130.621094 467.242188 130.28125 476.417969 136.164062 C 481.765625 139.59375 486.238281 144.691406 489.054688 150.808594 L 513.941406 204.917969 C 514.546875 206.230469 516.410156 206.230469 517.011719 204.917969 Z M 659.269531 256.441406 L 636.5625 305.816406 C 636.042969 306.941406 636.859375 308.210938 638.09375 308.210938 L 770.589844 308.210938 C 771.824219 308.210938 772.636719 306.941406 772.121094 305.816406 L 749.414062 256.441406 C 747.835938 253.007812 744.917969 251.140625 741.109375 251.140625 L 667.570312 251.140625 C 663.765625 251.140625 660.847656 253.011719 659.269531 256.441406 Z M 394.394531 305.816406 L 371.6875 256.441406 C 370.109375 253.007812 367.191406 251.140625 363.382812 251.140625 L 289.84375 251.140625 C 286.035156 251.140625 283.121094 253.007812 281.542969 256.441406 L 258.832031 305.816406 C 258.316406 306.941406 259.132812 308.210938 260.363281 308.210938 L 392.863281 308.210938 C 394.097656 308.210938 394.910156 306.941406 394.394531 305.816406 Z M 583.257812 305.816406 L 560.550781 256.441406 C 557.636719 249.9375 551.425781 251.140625 544.910156 251.140625 L 478.710938 251.140625 C 474.859375 251.140625 471.984375 253.035156 470.386719 256.433594 L 470.40625 256.445312 L 447.699219 305.820312 C 447.183594 306.941406 447.996094 308.210938 449.230469 308.210938 L 581.726562 308.210938 C 582.960938 308.210938 583.773438 306.941406 583.257812 305.816406 Z M 564.832031 161.402344 C 566.46875 157.96875 569.214844 156.085938 573.140625 156.085938 L 646.679688 156.085938 C 650.519531 156.085938 653.398438 157.96875 655.003906 161.382812 L 654.980469 161.390625 L 683.515625 223.425781 C 684.03125 224.546875 683.214844 225.820312 681.980469 225.820312 L 667.574219 225.820312 C 653.996094 225.820312 642.023438 233.484375 636.332031 245.859375 L 611.445312 299.972656 C 610.839844 301.28125 608.980469 301.28125 608.378906 299.972656 L 583.488281 245.859375 C 578.511719 235.0625 568.550781 227.621094 556.769531 226.105469 C 553.171875 225.644531 543.609375 225.761719 537.859375 225.804688 C 536.617188 225.816406 535.796875 224.539062 536.3125 223.410156 Z M 381.992188 231.21875 C 371.503906 224.496094 360.851562 225.820312 348.976562 225.820312 C 347.742188 225.820312 346.929688 224.546875 347.445312 223.425781 L 375.976562 161.390625 L 375.957031 161.382812 C 377.5625 157.96875 380.4375 156.085938 384.28125 156.085938 L 457.820312 156.085938 C 461.628906 156.085938 464.59375 157.980469 466.121094 161.390625 L 494.652344 223.421875 C 495.167969 224.542969 494.355469 225.816406 493.121094 225.816406 L 478.714844 225.816406 C 465.09375 225.816406 453.203125 233.480469 447.492188 245.867188 L 447.46875 245.859375 L 422.582031 299.96875 C 421.980469 301.28125 420.121094 301.28125 419.515625 299.96875 L 394.628906 245.859375 C 391.78125 239.675781 387.398438 234.683594 381.992188 231.21875 Z M 324.125 681.585938 C 350.738281 681.585938 372.316406 703.171875 372.316406 729.796875 C 372.316406 756.421875 350.738281 778.007812 324.125 778.007812 C 297.511719 778.007812 275.933594 756.421875 275.933594 729.796875 C 275.933594 703.171875 297.511719 681.585938 324.125 681.585938 Z M 642.726562 681.585938 C 669.339844 681.585938 690.914062 703.171875 690.914062 729.796875 C 690.914062 756.421875 669.339844 778.007812 642.726562 778.007812 C 616.109375 778.007812 594.535156 756.421875 594.535156 729.796875 C 594.53125 703.171875 616.109375 681.585938 642.726562 681.585938 Z M 158.765625 333.53125 C 157.671875 333.53125 156.875 334.539062 157.121094 335.601562 L 242.570312 702.191406 C 243.777344 707.371094 246.023438 712.042969 249.0625 716 C 249.945312 717.152344 251.769531 716.726562 252.050781 715.304688 C 258.78125 681.636719 288.496094 656.261719 324.125 656.261719 C 364.160156 656.261719 396.730469 688.304688 397.609375 728.144531 C 397.628906 729.058594 398.378906 729.796875 399.296875 729.796875 L 567.550781 729.796875 C 568.46875 729.796875 569.21875 729.058594 569.238281 728.144531 C 570.113281 688.304688 602.6875 656.261719 642.722656 656.261719 C 678.351562 656.261719 708.066406 681.636719 714.796875 715.304688 C 715.078125 716.726562 716.902344 717.152344 717.785156 716 C 720.824219 712.042969 723.070312 707.371094 724.277344 702.191406 L 809.726562 335.601562 C 809.972656 334.539062 809.171875 333.53125 808.082031 333.53125 Z M 665.648438 401.785156 C 672.636719 401.785156 678.304688 407.453125 678.304688 414.445312 C 678.304688 421.4375 672.640625 427.109375 665.648438 427.109375 L 301.199219 427.109375 C 294.207031 427.109375 288.542969 421.4375 288.542969 414.445312 C 288.542969 407.453125 294.207031 401.785156 301.199219 401.785156 Z M 665.648438 401.785156 " fill-opacity="1" fill-rule="evenodd"/></g></svg>